<svg xmlns="http://www.w3.org/2000/svg" width="1088.75" height="759.321" viewBox="0 0 1088.75 759.321">
  <g id="abstrakt-design-first-issue-1-13" transform="translate(111.283 -130.585)">
    <circle id="Ellipse_1" data-name="Ellipse 1" cx="293.6" cy="293.6" r="293.6" transform="translate(344.7 152.1)" fill="#1ae4ca"/>
    <path id="Path_43" data-name="Path 43" d="M534.7,551.6a1017.97,1017.97,0,0,1-175,29.9c-82.8,6.9-166.7,29.1-71.5,97.4,159.1,114.2,313.7,169.9,295.2,42.9C568.2,617.2,607.7,532.4,534.7,551.6Z" fill="#d1d3d4"/>
    <path id="Path_44" data-name="Path 44" d="M673.4,888.7c-.1-3,.6-3.8,2.9-2.9,8.3,3.3,15.7,7.6,20,16.1a64.3,64.3,0,0,1,5.6,16.5,18.528,18.528,0,0,1-3.5,14.4,12.974,12.974,0,0,1-5.4,3.8,25.146,25.146,0,0,0-6.5,3.8c-1.1.9-2.2,1.9-3.9,1.2-1.2-.5-1.8.7-2.5,1.5-4.8,6.2-11.9,9.2-18.5,12.8-3.2-.2-6.3,1.1-9.4,1-6.6-.1-13-1.2-18.7-4.8A25.131,25.131,0,0,1,622,938c-1.5-4.5-2.6-8.9-2.2-13.7.5-6.8,2.2-13.2,7-18.5,6-6.7,13.6-10.4,21.9-13.3a4.012,4.012,0,0,1,1.5-.3c5.9.7,11.2-1.7,16.6-3.5C669.1,887.9,671,889.3,673.4,888.7Zm9.9,36.3a28.652,28.652,0,0,0-5.8-19.8c-2.1-2.8-4.5-5.4-8.1-6.2-3.8-.8-4.3-.8-7.3-3.6a2.22,2.22,0,0,0-1.1-.5,12.65,12.65,0,0,0-2.8-.3c-10.7.6-19.9,4.4-27.3,12.3-2.5,2.6-4.9,5.3-5.9,8.9-2.2,8.1-2.1,16,1.7,23.7a23.048,23.048,0,0,0,11.2,10.8c4.5,2.2,9.4,2.7,14.4,2.7,5.2,0,10.1-.8,14.3-4a11.73,11.73,0,0,1,3-1.9c4.9-2.2,7.9-6.5,11.1-10.5a10.93,10.93,0,0,0,2.1-5.5c.3-2.1.3-4.1.5-6.1Zm.4-16.8c-.6,2.1.6,3.2,1.2,4.5s.9,2.4,1.5,4c.7-3.5-1-5.8-2.7-8.5Zm1.9,28c3.4-1.3,3.4-1.4.5-4.2a15.088,15.088,0,0,0-.5,4.2Zm1.8-39.3c1.3,2.7,1.3,2.7,3.2,3.1a8.641,8.641,0,0,0-3.2-3.1Zm-5.2,8.3c-.4-.6-.8-1.3-1.2-1.9-.4-.4-.8-1.1-1.4-.2a3.321,3.321,0,0,0,2.6,2.1Zm-6.4-7.1a1.357,1.357,0,0,0-1.3-.7c-.1,0-.3.5-.2.7.2.5.6.9,1.2.7a4.874,4.874,0,0,0,.3-.7Z" transform="translate(-731 -67)" fill="#1b1d21"/>
    <path id="Path_45" data-name="Path 45" d="M652.5,291.5c1.2-1.9,3.2-2.1,4.6-3.4s3.1-2,4.2-3.9a2.684,2.684,0,0,0-2.8.9c-1.6,2.1-3.9,2.5-6.2,3-2.9.6-5.7,1.3-8.5,2a15.4,15.4,0,0,1-4.3.6c-1.1,0-2.4-.1-3.3,1-2.5,3-6,2.6-9.2,2.5a24.438,24.438,0,0,0-4.7.1,14.717,14.717,0,0,1-7.5-.6c-7.2-2.7-14-5.9-18.6-12.3-6.6-9.1-8.4-25.1-.6-34.4,1.8-2.1,3.2-4.5,5-6.7,6.3-7.6,14.5-10.9,24-11.8,1.3-.1,2.6-.3,3.9-.5a12.233,12.233,0,0,1,7.8.5,16.552,16.552,0,0,0,9.3,1.5,9.389,9.389,0,0,1,4.7.5,5.309,5.309,0,0,0,3.5.3c2.1-.9,3.5-.1,5.2,1,6.9,5,9.8,12.2,10.9,20.3.4,3,1.4,5.9,1.4,9.1,0,4.6-2,8.8-3,13.1a32.814,32.814,0,0,1-2,5.2c-2.2,5.5-6.5,9-11.3,12A2.482,2.482,0,0,1,652.5,291.5Zm-1.4-38.3V252c.3-8-2.3-14.6-9.7-18.6-.7-.4-1.2-1.1-2-1.3-1.6-.5-2.8-2.3-4.5-2.1-5.3.4-10.7-.3-15.9.9a32.911,32.911,0,0,0-16.1,9.1c-3.2,3.4-5.6,7.7-8.3,11.7a6.992,6.992,0,0,0-1.1,4.2c-.1,3.4-.2,6.9,0,10.3a25.945,25.945,0,0,0,3.7,11.7c3.7,6.2,9.4,10,16.1,12.4s13.4.8,20.1.1a3.7,3.7,0,0,0,1.1-.5c5.4-3.6,10.1-7.9,13-13.7,3.5-7.2,3.2-15.2,3.6-23Zm1.3,10c2.3-3.4,2.5-8.8.8-11.5-.3,3.8.3,7.4-.8,11.5Zm14.8-6.2c-.8,1.4-1,2.8.1,5C668.2,259.8,668,258.4,667.2,257Zm-16.9-20.1-.4.4a8.343,8.343,0,0,0,.8,1.2c.5.4,1.1.9,1.6.1.4-.6-.3-.9-.7-1.1S650.8,237.1,650.3,236.9ZM639.1,289c1,.5,1.5.3,1.9-.1s1-1,.4-1.6c-.4-.4-.9.1-1.3.4A11.325,11.325,0,0,0,639.1,289Zm27-15.2a.367.367,0,0,0,.3-.1,2.227,2.227,0,0,0,.9-1.7,1.853,1.853,0,0,0-.2-.7c-.8.1-.7.9-1,1.4-.2.4-.3.8,0,1.1Z" transform="translate(-112 79)" fill="#1b1d21"/>
    <path id="Path_46" data-name="Path 46" d="M149.2,765.9c1.4,0,1.4-1.1,1.7-1.7.5-.9,1.2-1.6,2.2-1s2,1.8,1.1,3c-2.7,3.5-4.6,7.5-8.9,10a160.188,160.188,0,0,1-16.3,7.5c-4.9,2.1-10.3,2.5-15.7,2.5a95.662,95.662,0,0,1-15.1-.9c-2.6-.4-4.6-2.5-7.5-2-.6.1-1.5-1.7-1.9-2.8A156.524,156.524,0,0,0,82.3,766c-1.8-3.6-1-6.4,1.7-10.2,5.2-7.2,12.8-10.6,20.6-13.7a26.358,26.358,0,0,1,12.1-1.9,13.328,13.328,0,0,0,2.8-.3c9.7-2.3,18.3,1.1,26.6,5.5,1.8.9,2.2,2.6,2.7,4.2C149.6,752.6,149.8,762.4,149.2,765.9Zm-43.8,4.2a60.749,60.749,0,0,0,11.3-.7c7-.8,13.9-2.3,20.1-6,4.3-2.6,8.1-5.6,8.5-11.3a5.951,5.951,0,0,0-2.8-6c-2.3-1.6-5-1.5-7.4-2.5a24.134,24.134,0,0,0-13.8-1.2,13.52,13.52,0,0,1-4,.3c-9.2-.1-17.1,3.5-24.4,8.7a21.447,21.447,0,0,0-6.2,7.2c-2.1,3.5-1.6,5.4,1.7,7.7a13.039,13.039,0,0,0,3.1,1.6,27.418,27.418,0,0,0,13.9,2.2Zm6.5,4.5.1-.7-7.9.5v.2Zm6.3,4.8a.749.749,0,0,0-.1-.5c-.5-.4-1.1-.8-1.7-.4-.3.2-.4.6-.6.9a7.974,7.974,0,0,0,1.5.3,1.613,1.613,0,0,0,.9-.3Zm28.1-8.8c.1-.3.2-.7.3-1,0-.6.4-1.3-.4-1.7a1.521,1.521,0,0,0-.6.4c-.4.7,0,1.3.2,1.9,0,.1.1.2.5.4Z" fill="#1b1d21"/>
    <path id="Path_47" data-name="Path 47" d="M830.9,252.4a6.3,6.3,0,0,0,.3,3.6c2.3,8.4,2.6,17.1,3.7,25.6.4,3.2.2,6.5.3,9.8.3,6.2,0,12.4,0,18.6,0,2-1,2.8-2.7,2.3a4.032,4.032,0,0,0-3.8.7,11.184,11.184,0,0,1-6,1.9c-4.2.5-8,1.9-11.9,3.2a68.391,68.391,0,0,1-8.9,2.3,42.442,42.442,0,0,0-9.7,3.2,3.582,3.582,0,0,1-1.1.4c-5.7.6-10.9,3.2-16.6,3.9a6.424,6.424,0,0,0-3,1.1c-2.3,1.4-4.9.7-7.3,1-2.7.4-3.9-1.6-3.2-4.4,1.3-5,.3-10-.3-15a25.948,25.948,0,0,1-.4-5.6,64.809,64.809,0,0,0-1.6-18.6c-1.4-6.6-2.5-13.3-.6-20.1.1-.4,0-.9.2-1.2,1.4-1.6-2.2-5,2.4-5.8,2.1-.3,3.7-2.5,6.3-3,9.3-1.8,18.8-2,28.1-3.8,8-1.6,16.1-2,24.1-3.2,1.2-.2,2.7-.1,3.3-1.1,1.9-3.1,4-1.3,6.1-.6C831.2,248.4,831.2,250.4,830.9,252.4ZM764,322.8l.8.2c1.2-1,2.5-2,3.6-3.1,6.3-6.1,12.2-12.7,19.5-17.7a9.025,9.025,0,0,0,2-1.9,50.431,50.431,0,0,1,7.5-7.1,53.845,53.845,0,0,0,6.9-6.6c3.4-4,3.2-4.5-1.6-6.7a25.492,25.492,0,0,0-5.3-1.8,79.047,79.047,0,0,1-13.2-4.5c-2-.9-3.5-2.4-5.4-3.3-4.4-2-8.7-4-13.1-5.9-3.5-1.5-4.5-1-5,2.8-.8,6.2-1,12.6.7,18.6,2.2,8.1,1.2,16.4,2,24.5C763.9,314.5,764.8,318.6,764,322.8Zm2,5c11.6-3.7,23-6.1,34-9.7,8.7-2.8,17.8-4.1,26.2-8.4a5.58,5.58,0,0,0-1.5-3.5,16.1,16.1,0,0,1-3.7-5.6c-2.3-5.4-6.9-9.4-9.3-14.8-.5-1-1.3-1.1-2.2-.1a63.175,63.175,0,0,1-5.6,6c-2.4,2.1-5.1,3.9-7.6,5.8-1.6,1.2-3.2,2.3-3.5,4.6-.1,1.2-1.3,1.6-2.2,2.1-4.2,2.4-7.5,6-11.5,8.6-.8.5-1.1,1.5-1.6,2.3a22.5,22.5,0,0,1-5.3,5.8,17.845,17.845,0,0,0-6.2,6.9Zm-3-67.9a26.429,26.429,0,0,0,3.7,2,104.081,104.081,0,0,1,12.8,5.7c3,1.5,5.4,3.9,8.6,5,6.6,2,13.4,3.5,19.8,6.2,1.2.5,1.8.3,2.4-1.1a98.475,98.475,0,0,1,6.9-14.7c1.9-3.3,4-6.5,5.2-10.4a6.723,6.723,0,0,0-5.2-.4c-6.5,1.7-13.2,2-19.7,2.9-11.5,1.4-22.8,3.2-34.5,4.8Zm62.7-7a28.432,28.432,0,0,0-3.3,5.6c-2.1,3.9-5,7.4-6.1,11.9a25.945,25.945,0,0,1-3.7,7.9,2.423,2.423,0,0,0-.3,3c3.5,7.2,8.3,13.6,12.5,20.4a35.65,35.65,0,0,0,4.2,5.4c1.2,1.3,2.5.8,2.9-.9a48.521,48.521,0,0,0,.9-5.5c.2-6.7-1-13.3-.8-19.9a50.749,50.749,0,0,0-1.1-10.3c-.4-2.1-.6-4.2-.8-6.3-.3-4.2-1.1-8.1-4.4-11.3Z" transform="translate(54 -26)" fill="#1b1d21"/>
    <path id="Path_48" data-name="Path 48" d="M441.6,791.3a14.6,14.6,0,0,0-5,3.5c-.4.5-1,1.1-1.7.4a1.519,1.519,0,0,1,0-2l.2-.2a10.585,10.585,0,0,1,1.2-1,9.311,9.311,0,0,0,3.7-4.6,2.729,2.729,0,0,1,3.2-2.2h.1c1.5.2,1,1.7,1.1,2.6.5,3.4,1,6.9,1.2,10.3.3,5.6,1.1,11.1,1.6,16.7.9,9.7,2.4,19.4,4.1,29,1,5.6,2.2,11.2,3.4,16.8,1.2-.4,1.3-1.6,1.4-2.4.4-5,1.5-10,2-15,.5-5.5,1.9-11,2.4-16.6.3-4.2,1.2-8.5,1.1-12.7-.1-4.9,1.3-9.5,1.3-14.3.1-5,.5-10,1.1-15,.4-4.1.8-8.2,1.4-12.3a7.772,7.772,0,0,0,.2-1.6c-.1-2.6-1.6-3.6-4-2.6-4.3,1.9-8.6,4.1-13.2,4.8-3.9.6-7.3,2.5-11.1,3-1.3.2-3,.3-3.6,1.5-.8,1.6-1.4,2.4-3.2,1.4-.8-.4-1.5,0-1.6,1.1,0,1.3-1.3,1.2-2.1,1.3a1.43,1.43,0,0,1-1.7-.7c-.3-.6-.3-1.5.4-1.8,4-1.6,2-3.9,1.3-6.6-1.2-4.5-1.5-9.2-2.1-13.8-.8-5.4-2.6-10.6-3.3-16a4.194,4.194,0,0,0-1.9-3.5,21.572,21.572,0,0,0-.5,9.1c.5,3.7-.6,7.4-.9,11.1-1,13.2-4.7,25.9-7.1,38.9-.8,4.3-1.5,8.7-2.2,13a4.78,4.78,0,0,0,.3,2.9c1.6.2,2.5-.9,3.6-1.9,6-5.3,12.3-10.2,18.1-15.7a7.443,7.443,0,0,1,2.7-1.6c-2.9,3.5-5.6,7.2-9.1,10.2A162.066,162.066,0,0,0,408.6,820c-.8.8-1.2,1.8-2.5,1.1a2.291,2.291,0,0,1-1.3-2.6c.6-5.7,1.8-11.3,2.6-16.9.9-6.5,3.1-12.7,3.8-19.1a15.667,15.667,0,0,1,.8-3.1,14.039,14.039,0,0,0,1-3.5c1-8,2-16.1,3-24.1a9.737,9.737,0,0,0,.2-2.4c-1.4-6.5.4-12.7,1.7-18.9.1-.7.2-1.4.9-1.7.9-.5,2.1-.8,2.1.6,0,2.6,1.3,4.9,2,7.3,2.4,8.2,3.9,16.6,5.9,24.8a39.067,39.067,0,0,1,.5,4.8,19.678,19.678,0,0,0,.5,3.5c1.3,5.1,1.9,5.4,6.9,3.7,6.3-2.1,13-3.2,19-6.1a33.931,33.931,0,0,1,9.8-3.1c.5-.1,1-.2,1.6-.3,1.6-.2,3.6-.3,4.3,1.2.5,1.1-.1,2.9-1.2,3.9a5.46,5.46,0,0,0-1.7,4.7,4.241,4.241,0,0,1-.9,3.4c-1,1.1-.8,2.5-.6,3.8.1.8.7,1.4.5,2.3-1.3,6.4-1.4,12.8-2.2,19.3-.6,5.1-.5,10.2-1.4,15.3a22.9,22.9,0,0,0-.1,9.4,1.7,1.7,0,0,1,0,1c-2.4,5-1.7,10.7-3,16-.2.8.3,1.1,1,1.3.4.1.6,1.2.1,1.3-2.2.5-1.6,2.4-2.1,3.7-.2.6-.3,1.6,0,1.9,1,.8,1-.9,1.1-.8.4.7.6,1.8,0,2.1-2,.8-1.3,2.7-1.8,4.1-.1.2.1.6,0,.8-2,4-.5,8.2-.7,12.4a3.845,3.845,0,0,1-2.6,2.9c-1.1.4-2.4-.9-2.4-2.1-.1-3-1.3-5.7-1.6-8.6-.6-5.2-1-10.3-3-15.2a24.582,24.582,0,0,1-1.2-7.1,30.25,30.25,0,0,0-1.1-6.7,4.747,4.747,0,0,1-.2-3.7c1.3-2.5.1-4.8-.1-7.2-.9-9.9-3.3-19.7-3.6-29.7A14.525,14.525,0,0,1,441.6,791.3Z" fill="#1b1d21"/>
    <path id="Path_49" data-name="Path 49" d="M265.7,476.8c-5.4-5.5-4-12,.7-16.5,3.7-3.5,8.3-4.9,13.1-5.4a42.9,42.9,0,0,1,14.3.6,24.884,24.884,0,0,1,14.5,9.1,124.991,124.991,0,0,1,10,14.9c4.1,7.4,4.4,15.2,2.2,23.3-.4,1.2-.6,2.5-.9,3.8a5.852,5.852,0,0,0,1.3.2c4.7.2,5.5.6,5.9,5a22.345,22.345,0,0,0,2.6,8.3c1.5,3.1,1.759,1.1,4.859-.9,3.8-2.5,7.741-4.5,11.441-7,5.4-3.6,11.2-6.4,17-9.6,3.1-1.7,6.4-3.3,10.4-3.3.3-2.2-1.2-3.7-2-5.4-1.7-3.6-2.5-7.7-5.8-10.3a47.4,47.4,0,0,0-7.9-5.3,50.2,50.2,0,0,1-12.7-8.2,3.721,3.721,0,0,1-1.3-2.8c.3-4.4,1.4-8.5,5.3-11.1,3.6-2.4,7.2-5,10.9-7.3a37.3,37.3,0,0,1,14.7-5.7c7.3-1.1,13.3,2,13.8,10.6.3,4.9-1.2,9.5-1.8,14.2-.9,6.5.1,8,6.5,9.3,3.3.7,6.6-.1,9.9-.1,5.7,0,11.5-.5,17.1-.1a28.633,28.633,0,0,1,13.3,4c3.4,2.1,4.1,5.7,4.9,9.3.4,2,.2,4,.7,5.9,1,3.5,1.5,3.7,5.1,4.6,6,1.6,11.6-.1,17.4-1,11.2-1.7,22.2-4.6,33.4-6a10.8,10.8,0,0,1,4,.2c-3.7.9-7.3,2-11.1,2.6-4.6.7-9,2.3-13.6,3.1-6.7,1.1-13.3,2.5-20,3.9-4,.8-8,.2-11.9-.5-2.7-.5-4.4-2.8-5.2-5.1a12.521,12.521,0,0,1-1.1-5c.2-9.2-3.9-11.4-12.3-13.1-8.2-1.7-16.5-.8-24.7-.2a29.306,29.306,0,0,1-10.2-1,6.8,6.8,0,0,1-5-6.9c0-4.3,1-8.4,1.8-12.6a18.855,18.855,0,0,0,0-6.7c-1.1-5.8-5.3-8.2-11.1-7.1-9.7,1.8-17.1,7.8-24.9,13.1a8.671,8.671,0,0,0-3.6,6.9c-.1,3.3,2.6,4.9,5,6.5,4.4,2.9,9.5,4.7,13.7,8a19.192,19.192,0,0,1,5,5.6,115.65,115.65,0,0,1,7,15.7,10.665,10.665,0,0,1,.7,1.9c.1.6.2,1.4-.6,1.7-.7.2-.9-.3-1.2-.7-2.3-2.9-3.3-3.3-6.7-2a34.65,34.65,0,0,0-8.5,4.5c-6.9,5.3-13.9,10.4-20.8,15.6-.6.5-1.3.9-2,1.4-5.1,3.1-9.3,1.4-10.8-4.5-.6-2.4-1.7-4.7-1.9-7.3-.2-3.1-5-4-7.5-1.4a5.067,5.067,0,0,1-3,1.7,1.368,1.368,0,0,1-1.6-.9,1.32,1.32,0,0,1,.6-1.7c5.4-2,5.3-6.9,6.1-11.2a27.627,27.627,0,0,0-5.7-22.5c-2.1-2.7-3.7-5.8-5.7-8.7a26.2,26.2,0,0,0-7.8-7.4,20.215,20.215,0,0,0-9-2.8c-3.3-.3-6.7.1-10-.1-4.3-.3-7.8,1.9-11.2,3.7-2.5,1.3-4.2,4.2-5.5,7-.5,1.1.3,2,.5,3.1.1,2.1,1.9,3.9.9,6.1Z" transform="translate(-120 174)" fill="#1b1d21" opacity="0.745"/>
    <path id="Path_50" data-name="Path 50" d="M616,845.7a21.1,21.1,0,0,1,7.9-4c9.2-2.2,18.4-4.5,27.6-6.6,1.2-.3,1.5-.8,1.5-1.8.1-7.5,0-14.9-2.6-22.1a22.737,22.737,0,0,1-1.7-8.6c.1-2.3-.9-2.4-3-2.8-9.2-1.4-17.8,1.7-26.6,3.5a35.1,35.1,0,0,0-6.4,2.4c-3.9,1.8-3.1,1.2-2.9,5.4.2,3.6,1.9,6.7,3.3,9.8,1.7,3.8,2.4,7.9,3.5,11.8a55.049,55.049,0,0,0,1.6,5.8,3.059,3.059,0,0,1,.1,2.3,1.706,1.706,0,0,1-1.4,1.3,1.614,1.614,0,0,1-1.7-.8,6.424,6.424,0,0,1-1.1-3c0-3.2-1.5-6.2-1.8-9.4-.5-3.8-2.4-7.2-3.7-10.8-.6-1.8-1.3-3.5-1.9-5.3-2.2-6.3.3-11.4,3.7-16.4a77.939,77.939,0,0,1,10.1-12.8,3.045,3.045,0,0,0,.9-1.3c.4-3.6,3.5-4,5.9-4.9,5.5-2,11.3-2.9,17-4.2,4.5-1,9-2.2,13.5-3.5,2-.5,3.7-1.1,5.6.4,2.3,1.9,2.5,1.8,1,4.7a3.733,3.733,0,0,0-.1,3.1c1.6,6.2,1.7,12.6,3.5,18.8a16.971,16.971,0,0,1,.1,7.1,8.643,8.643,0,0,0,.8,5.7,2.723,2.723,0,0,1-.3,3c-2.5,3-2.7,7-4.5,10.1-1.7,2.9-2.3,6.8-5.7,8.6-1,.5-1,1-.7,1.9.7,1.9.3,2.9-1.9,3.9s-3.7,2.5-6.3,1.4c-1.1-.5-2.8.4-4.2.8-7.3,2-14.9,3.1-22,6.1C620.9,846.2,618.4,845,616,845.7Zm35.5-50.2c-.8,4.1,0,8.3,1,12a110.339,110.339,0,0,1,4,20.6c4.9-4.8,5.8-11,8-16.5-1-3.7.2-7.4.2-11.1-.1-6.2-2-12-2.4-18.1-.1-.9,0-1.8-1.4-2.3-1.8,4.7-5,8.7-6.5,13.5A7.216,7.216,0,0,1,653,796c-.6.7-1.2.3-1.6-.3a4.235,4.235,0,0,1,.4-3.8c2-3.5,3.9-7,5.8-10.5,1.5-2.8,3.7-5.4,4-9.1-12.2,2.2-24,5.8-36.2,7.8.7,1.6.6,3-.8,3.7-2.3,1.2-3.2,3.6-4.8,5.2-3.2,3.1-4.9,7.4-8,10.5a3.831,3.831,0,0,0-.8,3.7c1.9-1.3,3.9-1.6,5.8-2.1,4.9-1.3,9.7-2.9,14.7-3.7a125.793,125.793,0,0,1,15-.9A17.1,17.1,0,0,0,651.5,795.5Z" fill="#1b1d21"/>
    <path id="Path_52" data-name="Path 52" d="M839.5,698.3a56.784,56.784,0,0,1-11.5-2.8,101.874,101.874,0,0,0-22.4-5.5,27.1,27.1,0,0,1-5.5-1.2,21.108,21.108,0,0,0-7.4-1.4,3.458,3.458,0,0,1-3.9-2.6c-.5-1.5.9-2.3,2.1-3,3-1.9,4.9-4.9,6.8-7.7A202.469,202.469,0,0,1,813.4,653c4-4.7,7.1-10,12.1-13.8a1.441,1.441,0,0,0,.8-1.3c-.1-1.1.3-1.8,1.5-1.7s2.6-.1,3.4,1.5c2.3,4.5,6.2,7.4,10,10.6,5.2,4.4,10.9,8.2,15.2,13.5.8,1,2,1.7,3,2.7,1.8,1.8,1.9,3.7-.3,5-2.8,1.8-4.1,4.6-5.5,7.2-2.3,4.5-5.4,8.2-8.4,12.1-1.5,1.9-3,3.5-1.5,6.4C844.5,697,842.6,698.2,839.5,698.3Zm-12.9-56c-12.2,13.1-22.2,26.9-31.6,41.2,1.7,1.5,3.5,1.8,5.3,2.2,10.7,2.2,21.4,4,31.7,7.8a3.07,3.07,0,0,0,3.3-.5c-3.3-16.4-3.3-33.5-8.7-50.7Zm4.8,1.7a3.585,3.585,0,0,0,0,2.5c1.5,6.2,3.3,12.4,3.6,18.7.3,7.8,2.7,15.1,3.9,22.7.1.6-.1,1.7,1.3,1.9a91.956,91.956,0,0,0,11.3-15.7c4.5-8.3,4.6-8.5-2.1-15.2l-1.4-1.4c-5.4-4.6-11.4-8.3-16.6-13.5Z" fill="#1b1d21"/>
    <path id="Path_53" data-name="Path 53" d="M600.8,134.2c-5.4.3-9.6,1.9-13.7,3.6-9.5,3.9-18.9,7.9-27.1,14.3-3.3,2.6-7.2,4.5-10.7,6.9-5.3,3.7-10.8,7.3-15.5,11.8l-.3.3c-.9.7-1.8,2.3-2.9,1.1s.8-1.9,1.5-2.6a82.492,82.492,0,0,1,13-10.6,74.845,74.845,0,0,1,10.8-6.7c3.7-1.7,6.4-4.8,10-6.6,2.1-1.1,4.1-2.5,6.3-3.5,4.3-2,8.7-4,13.1-5.9,5.7-2.4,11.6-3.7,17.5-5.4.5-.1,1-.2,1.6-.3a1.435,1.435,0,0,1,1.6,1c.4.7-.2,1.2-.6,1.7-6.7,7-13.9,13.6-19.1,21.8-1.3,1.9-2.4,3.9-3.5,5.9-1.4,2.9-.4,4.3,2.9,4a20.692,20.692,0,0,0,4.3-1c7.2-2.5,14.3-5.2,21.5-7.5,13.3-4.3,26.4-9.4,39.9-12.9a68.034,68.034,0,0,1,12.7-1.7,14.172,14.172,0,0,1,5.4,1.2c2.1.7,2.6,2.6,1.4,5a31.13,31.13,0,0,1-6,7.9,53.684,53.684,0,0,0-5,5.7c-2.7,3.8-1.9,6.5,2.6,7.7a62.739,62.739,0,0,0,10.5,2,23.2,23.2,0,0,1,12.1,4.7c5.4,4.1,11.5,7.3,17.2,10.9,2.7,1.7,5.6,3.1,7.8,5.4a4,4,0,0,0,2.9,1.2c6.3.5,12.1,2.9,17.8,5.5,8.6,3.9,17.4,7.2,26.1,10.8a22.986,22.986,0,0,1,4.4,2.3,14.671,14.671,0,0,1-6.9-1.3c-6.6-2.8-13.3-5.3-20-8.1-6.1-2.6-12.1-6.1-19-6.8a16.3,16.3,0,0,1-9.6-4.3c-2.7-2.5-6.2-4.2-9.5-5.9a85.659,85.659,0,0,1-12-7.9c-4.5-3.4-9.5-4.5-14.9-5-4.1-.3-8.2-.9-11.3-4.2-2.4-2.6-2.6-4.4-.9-7.6a18.04,18.04,0,0,1,3.3-4,68.247,68.247,0,0,0,7.7-9.2c1.6-2.2,1.2-2.9-1.4-3.5a27.813,27.813,0,0,0-14.6,1.1c-6.1,1.9-12.3,3.4-18.3,5.6-2.6.9-5.2,2.1-7.8,2.9-5.3,1.6-10.7,3.1-15.8,5.2-5.8,2.5-11.8,3.9-17.6,6.4a23.1,23.1,0,0,1-7.8,1.6c-4,.3-6-2.4-4.6-6.1a34.563,34.563,0,0,1,3.2-6,69.515,69.515,0,0,1,10.4-13.2C596.1,139.7,598.1,137.1,600.8,134.2Z" fill="#1b1d21"/>
    <path id="Path_54" data-name="Path 54" d="M307.5,828.3c-.9,4.5-1,8.8-4.2,12.2-1.6,1.6-1.7,4.6-3.8,5.5s-4.4.4-6.7,1a12.809,12.809,0,0,0-4.2,1.7,44.976,44.976,0,0,1-10.5,4.7c-2.8.8-6,0-8.6-.9a25.832,25.832,0,0,1-17.1-22.9,16.58,16.58,0,0,1,4.1-11.3c4.4-5.3,10.1-8.6,16-11.5,2.8-1.4,6-.6,9-.8a18.311,18.311,0,0,1,9.2,2.1c2,1,4.2.5,6.3,1,1.8.4,3.4.6,3.8,2.8a1.6,1.6,0,0,0,.7.9C307.1,816.7,306,823.1,307.5,828.3Zm-13.3-.5a41.7,41.7,0,0,0,0-5c-.2-1.6-.8-3.1-.9-4.7-.1-2.1.1-4.2-2.4-5.4-1.9-.9-2.8-3.5-5-3.8-3.8-.7-7.9-1-11.5.4a37.116,37.116,0,0,0-13.6,8.8c-4,4.2-6.4,9-4.6,14.9a26.3,26.3,0,0,0,5,9.5,19.159,19.159,0,0,0,10.8,7c6.7,1.4,12-2.3,17.3-5.8.5-.3.7-1.1,1.1-1.6,2.7-4.5,4.6-9.1,3.8-14.3Z" fill="#1b1d21"/>
    <path id="Path_55" data-name="Path 55" d="M735.8,418.6c-5.8.5-9.3,4.6-12.7,8.5-3.7,4.2-2.6,12.8,1.4,17.1,4.7,5.2,10.6,8.9,16.6,12.3,6.4,3.6,12.5,7.8,14.7,15.6a11.506,11.506,0,0,0,1.2,2.5,16.04,16.04,0,0,1-2.2,17.5,75.223,75.223,0,0,0-4.7,6.4,15.069,15.069,0,0,1-2.3,2.1A61.119,61.119,0,0,1,728.1,511a39.224,39.224,0,0,0-14.8,8.5c-1.9,1.8-4.9,3.2-3.8,6.8-2.8,2.6-1.1,5.2.3,7.5a16.4,16.4,0,0,0,5.8,5.9c6.6,4,13.4,7.6,20.2,11.3,7.1,3.9,11.8,10.3,12.3,18.2.5,8.8-1.6,14.1-10.2,17.9a135.311,135.311,0,0,1-14,4.7c-8.2,2.6-13.5,8.2-17.5,15.4a14.285,14.285,0,0,0-1.5,7,7.722,7.722,0,0,0,2.9,6.3c2.4,2,4.9,3.9,7.2,6-4.5-1.7-8.8-3.6-11.3-8.1-2-3.5-1-7.1.2-10.4,3-7.8,8.5-13.3,16-17,3.5-1.7,7.3-2.6,11-3.7a66.665,66.665,0,0,0,7.8-3.1c4.8-2.2,6.6-6.5,6.9-11.3.7-9.9-3.8-17-12.5-21.2-4.4-2.1-8.6-4.6-13.1-6.6a31.982,31.982,0,0,1-8-5.1,16.616,16.616,0,0,1-5.8-11.9,11.386,11.386,0,0,1,2.7-6.9c4.6-5.7,10.7-9,17.4-11.7,6.3-2.6,12.7-4.8,18-9.4a45.591,45.591,0,0,0,10-11.9c2-3.4,1.7-7.4.7-10.9-2-6.5-5.3-11.9-11.5-15.8-6.7-4.2-13.9-8-19.8-13.5-4.1-3.8-6.7-11.6-5.1-17.4s5.7-8.4,9.9-11.4a12.126,12.126,0,0,1,8.1-2.8,25.265,25.265,0,0,0,6.7-1C744.2,414.8,739.2,418.1,735.8,418.6Z" transform="matrix(-0.407, 0.914, -0.914, -0.407, 1642.644, 127.35)" fill="#1b1d21"/>
    <path id="Path_56" data-name="Path 56" d="M604.4,654.9c1.4,2.5,2,4.1,1.5,6.2-1.7,7-2.4,14.2-3.6,21.2a82.976,82.976,0,0,0-1.4,10,33.114,33.114,0,0,0,8-5.4c3.2-2.8,6.4-5.6,9.8-8.2a5.578,5.578,0,0,0,2.2-4.9c.1-4.8-.2-9.6-.5-14.4-.2-3.9.1-7.9.1-11.9,0-.7.1-1.3.1-2,0-1.5-.8-1.9-2.1-1.2a30.839,30.839,0,0,0-5.5,3.3c-3.5,2.8-7.8,3.9-11.9,5.2a2.47,2.47,0,0,1-2.2-.5,55.571,55.571,0,0,0-18.1-5.8c-6.8-1-13-3.8-19.6-5.1a2.6,2.6,0,0,1-2.1-2.6,2.684,2.684,0,0,1,1.5-2.9c2.6-1.4,5.2-2.8,7.8-3.9,5.2-2.2,11.1-2.6,15.9-6,1-.7,2.3-.2,3.5.2,4.6,1.9,9.4,2.9,14,4.5,4.2,1.4,8.2,3.7,12.5,5.1,2.8,1,5.6,2.2,8.4,3.3,2,.8,2.1,2.2.2,3.4-.8.5-1.6.6-.7,1.6a5.128,5.128,0,0,1,1,3.8c0,4.5.2,9,.2,13.6a80.666,80.666,0,0,0,1.3,13c.5,3.2.5,3.5-2.5,4.8-2.3,1-3.8,2.9-5.7,4.3-3.6,2.9-7,6-10.8,8.7a11.9,11.9,0,0,0-4.3,4.6,3.8,3.8,0,0,1-.9,1.3,2.483,2.483,0,0,1-2.6.5c-.8-.3-1-1.2-1.2-2a3.62,3.62,0,0,1,.3-2.3c1-2.1.9-4.4,1.3-6.5,1.4-7.7,2-15.5,3.7-23.2C602.6,661.8,603.4,658.8,604.4,654.9Zm-43.8-16.4c1.9,1,3.9.8,5.7,1.4,3.2,1.1,6.6,2,10,2.8,5.3,1.3,10.7,1.7,15.8,3.9,2.9,1.3,6.3,1.4,9.1,2.6,2.2,1,3.6.7,4.9-.6,2.1-2.1,4.9-3,7.3-4.8,1-.8,2.3-1.3,3-2.5a3.962,3.962,0,0,0-2.2-2.2c-4.5-2-9-3.9-13.6-5.5-3.1-1.1-6.4-1.8-9.5-2.9-4.2-1.4-8.3-.8-12.3.6a149.641,149.641,0,0,0-18.2,7.2Z" transform="translate(59 -126)" fill="#1b1d21"/>
    <path id="Path_58" data-name="Path 58" d="M483.3,252.6c4.3-3.2,7.2-7.2,10.4-10.9,1.7-2,1.6-3.3-.6-5.1-6.2-5.1-10.8-11.6-16.7-17,2.6-.9,3.3-.6,5.4,1.3,3.8,3.6,6.8,7.8,10.8,11.3,1.6,1.4,3.7,2.1,5.1,3.7s1.7,4.4-.1,5.9c-3.5,2.7-6.2,6.2-9.1,9.4-1.7,1.9-4.4,3.1-4.9,6.1-.2,1.2-1.7,1-2.3.3-1.5-1.9-2.3-1-3.2.4-1,1.7-2.5,1.7-4.2,1.4a46.449,46.449,0,0,1-5.1-1.1,25.389,25.389,0,0,0-13.4,0,3.321,3.321,0,0,1-3.8-1.3,3.046,3.046,0,0,1,.4-3.7c4.3-6.3,7.6-13.1,12.2-19.2,2.1-2.8,3.4-6.3,5.2-9.4a6.4,6.4,0,0,1,5-3.4c1.6-.3,2.5.1,2.9,1.8,2,8,4.3,15.9,4.9,24.1C482.5,249.1,482.9,250.9,483.3,252.6ZM474.4,224a11.227,11.227,0,0,0-3.3,4.2,92.019,92.019,0,0,1-7.2,11.5c-2.6,3.3-4.6,7.2-6.8,10.8a3.5,3.5,0,0,0-.5,3.4c.6,1.1,2,.8,2.9.5,2.6-.8,5.1,0,7.4.7a16.412,16.412,0,0,0,10.5-.1c2.3-.9,3-1.6,2.5-4a26.294,26.294,0,0,1-.6-3.9A153.16,153.16,0,0,0,474.4,224Z" transform="translate(-46 -41)" fill="#1b1d21"/>
    <path id="Path_60" data-name="Path 60" d="M603.9,498c4.9-2.4,7.6-6.5,10.7-9.9a59.436,59.436,0,0,1,5.5-5.7c3.8-3.1,7.5-6.4,11.2-9.5a15.1,15.1,0,0,1,2.6-1.8c.5-.3,1,0,1.2.6s0,1-.3,1.1c-3.4,1-5.2,4.1-7.5,6.3-3.9,3.9-8.8,6.8-11.9,11.7-1.7,2.7-4.5,4.7-7.1,7.3,8.6,5.1,15.3,12.2,24.6,15.4.6.2,1.2.5,1.8.7,1.6.5,2.6.1,2.6-1.8,0-2.9.4-5.8-.3-8.7a17.275,17.275,0,0,1-.1-7.5c.6-3,.5-6.1,1-9.1.6-3.2-.3-6.4-.8-9.5-.3-1.9.4-4-.8-5.8-.1-.2.2-.8.4-1a.668.668,0,0,1,1,0,.52.52,0,0,1,.2.4c.4,1.6,1.6,2,2.9,2.3a3.553,3.553,0,0,1,1.6,1.1c3.9,5.4,10,8.3,14.1,13.4a3.558,3.558,0,0,0,2.2,1.6c1.5.1,1.8,1.5,2.2,2.6.6,1.8-.3,2.9-1.8,2.1-2.2-1.1-3,.2-4.2,1.5-4.8,5.2-9.2,10.7-13.6,16.2-1.1,1.4-.8,3-1.3,4.5-.4,1.3-.5,2.4-2.2,1.8-.4-.1-2.8-1.3-3.8-1.7-2.3-1-4.7-1.7-7-2.9a71.614,71.614,0,0,1-9.5-5.9C613.4,504.3,609.2,500.7,603.9,498Zm36.8-21.7a4.088,4.088,0,0,0-.6,3.4c1.6,5,.5,10.1-.2,15.1s.5,9.3.2,14.8c3.7-3.1,5.7-6.5,8.2-9.3,2.1-2.4,4.5-4.5,6.3-7.3a2.518,2.518,0,0,0-.2-3.5c-3.9-4.9-9.6-7.9-13.7-13.2Z" transform="translate(307 -59)" fill="#1b1d21"/>
    <path id="Path_63" data-name="Path 63" d="M548.6,684.6c0-7.2,1.8-13.3,2.8-19.5.9-5.5,1.8-11,3-16.5a20.027,20.027,0,0,0,.4-2.4c.1-.8.4-1.7,1.5-1.4a1.538,1.538,0,0,1,1.2,1.7v.1a54,54,0,0,1-1.3,7,31.481,31.481,0,0,0-.9,4.2c-.9,5.9-2,11.8-3,17.6a30.367,30.367,0,0,0-.6,9c.2,1.9.8,2.7,2.7,3.2,5.4,1.3,10.8,2.7,16.5,2.9,3.1.2,6.2,1.2,9.3,1.8,3.9.8,7.6,2.4,11.7,1.7,1.4-.2,2.1,1,2.6,2.1a1.44,1.44,0,0,1-1.9,2,132.678,132.678,0,0,0-18.7-4.1,71.148,71.148,0,0,0-10.2-1.3,19.445,19.445,0,0,1-9.4-2.8c-1.2-.8-1.5-.8-2.4.6-.9,1.5-2.2,1.2-2.7-.6A11.915,11.915,0,0,1,548.6,684.6Z" transform="translate(59 -126)" fill="#1b1d21"/>
    <path id="Path_64" data-name="Path 64" d="M278.6,691.8c-.1-.4-.2-.5-.1-.6a2.591,2.591,0,0,1,2.4-1.7c.1,0,.4.5.3.7C280.9,691.6,279.7,691.5,278.6,691.8Z" fill="#1b1d21"/>
    <path id="Path_65" data-name="Path 65" d="M457.1,877.4c0,.9-.4,1.2-1,1.2s-1.3-.2-1.1-1.1c.1-.6-.2-1.5.7-1.5S456.8,877,457.1,877.4Z" fill="#1b1d21"/>
    <path id="Path_66" data-name="Path 66" d="M265.7,476.8c1.6-1.3,2.7.7,4.1.5-2,2.6-2.8.1-4.1-.6Z" fill="#1b1d21"/>
    <path id="Path_67" data-name="Path 67" d="M657.3,908.7a16.159,16.159,0,0,1,16.2,12.7c.5,3-.2,5.8-1,8.6-.4,1.6-1.5,3.2,0,4.9.8.8-.2,1.5-.9,1.8-5.5,1.8-10.7,4.5-16.5,5.7-4.1.8-7.6-.5-11-2.3a18.849,18.849,0,0,1-3.1-2.5c-7-6.2-7-8.5-4.9-17.7.8-3.4,3.7-5.4,6.4-6.8a42.139,42.139,0,0,1,11.6-4.1A11.582,11.582,0,0,1,657.3,908.7Zm13.1,16.8a19.513,19.513,0,0,0-1.4-7.1,9.857,9.857,0,0,0-14-5.1c-2.4,1.3-2.6,3.6-3.3,5.6-1.4,3.7,0,7.3,3.5,9.6a7.007,7.007,0,0,1,1.9,1.5c1.4,2.3,4,2.5,6,3.6a2.591,2.591,0,0,0,3-.5,11.989,11.989,0,0,0,4.3-7.6Z" transform="translate(-731 -67)" fill="#1b1d21"/>
    <path id="Path_68" data-name="Path 68" d="M626.2,242.6c6.7.2,13,5.5,12.9,11.2a23.119,23.119,0,0,1-4.3,13.9,18.4,18.4,0,0,0-1.7,2.2c-4.2,9-17.5,7.3-21.2,0a29.9,29.9,0,0,1-3-8.2,8.937,8.937,0,0,1,.6-5.1c.9-2,2.6-3.7,1.6-6.2-.1-.3.7-1,1.1-1.6C615.1,245.6,622,242.4,626.2,242.6Zm11.5,11.1c0-2.1-1.3-4-4.8-5a5.545,5.545,0,0,0-5,.6c-2.9,1.9-6.2,9.5-5.3,13a10.518,10.518,0,0,0,2.1,4.7c2.3,2.5,4.7,2.6,7.3.4,3.8-3.4,5.2-7.9,5.7-13.7Zm-9-8.8c2.5,2.1,2.9,2.2,3.2,1.4a3.593,3.593,0,0,0-3.2-1.4Z" transform="translate(-112 79)" fill="#1b1d21"/>
    <path id="Path_69" data-name="Path 69" d="M113.2,761.9a2.967,2.967,0,0,0-2.6,0c-2.9.7-5.6-.3-8.1-1.4-2.3-1-2.5-3.2-.4-4.6,6.2-4.3,12.8-7,20.6-5.7a28.3,28.3,0,0,1,7.1,2.4c2.9,1.4,2.8,4.2.1,5.9a14.528,14.528,0,0,1-6.6,2.3C119.8,760.9,116.4,761.5,113.2,761.9Zm-2.8-3.5c5.4.5,10.7.1,15.7-2.3C120.6,754.8,115.5,756.4,110.4,758.4Z" fill="#1b1d21"/>
    <path id="Path_70" data-name="Path 70" d="M275.5,842.5c-7.5-.1-11.3-5.8-11.5-11.8-.1-3.1,2.2-6.2,4.4-8.7,1.6-1.8,3.8-2.2,6.2-2.2,8.1.2,12.6,4.2,12.5,11.2a11.546,11.546,0,0,1-11.4,11.5Zm8.3-11.7a7.4,7.4,0,0,0-2.2-6.3c-1.7-1.7-3.4-1.2-4.3,1-.8,1.9-.5,4-.5,5.9a4.173,4.173,0,0,0,4.3,3.8c2.2,0,2.3-1.9,2.7-3.3Z" fill="#1b1d21"/>
  </g>
</svg>
