<svg xmlns="http://www.w3.org/2000/svg" width="66.511" height="44.36" viewBox="0 0 66.511 44.36">
  <path fill="#2786FF" id="Icon_ionic-ios-arrow-round-forward" data-name="Icon ionic-ios-arrow-round-forward" d="M50.291,12.1a3.019,3.019,0,0,0-.023,4.251L64.314,30.421H10.855a3,3,0,0,0,0,6.007H64.291L50.245,50.5a3.04,3.04,0,0,0,.023,4.251,2.991,2.991,0,0,0,4.228-.023L73.532,35.55h0a3.373,3.373,0,0,0,.624-.947,2.866,2.866,0,0,0,.231-1.155,3.011,3.011,0,0,0-.855-2.1L54.5,12.17A2.943,2.943,0,0,0,50.291,12.1Z" transform="translate(-7.875 -11.251)"/>
</svg>
