<?xml version="1.0" encoding="utf-8"?>
<!-- Generator: Adobe Illustrator 22.1.0, SVG Export Plug-In . SVG Version: 6.00 Build 0)  -->
<svg version="1.1" id="Ebene_2_1_" xmlns="http://www.w3.org/2000/svg" xmlns:xlink="http://www.w3.org/1999/xlink" x="120px" y="480px"
	 viewBox="0 0 480 120" style="enable-background:new 0 0 480 120;" xml:space="preserve">
<style type="text/css">
	.st0{fill:#00465F;}
</style>
<title>zoiZeichenfläche 1</title>
<g>
	<path class="st0" d="M104,40c0,6.4-1.8,9.5-8.2,9.5s-8.2-3.1-8.2-9.5s1.8-9.5,8.2-9.5S104,33.5,104,40 M137.3,56.5v-7.1h-6.9v-26
		H95.8c-12.5,0-17.9,3.4-17.9,16.5c-0.1,3.3,0.4,6.5,1.6,9.5H57.8c-0.5,0-0.6-0.1-0.6-0.3c0.1-0.3,0.2-0.6,0.5-0.8L73.2,34
		c1.7-1.3,2.6-3.4,2.4-5.5c0-3.3-2.1-5.1-5.2-5.1H45.3v11.2h7.1v-4.2h10.7c0.4,0,0.6,0.3,0.6,0.4s-0.1,0.3-0.5,0.6l-15.6,14
		c-1.7,1.3-2.7,3.4-2.6,5.6c0,4,2.9,5.3,5,5.3h45.9c12.4,0,17.8-3.4,17.8-16.5c0.1-3.3-0.4-6.5-1.6-9.5h8.9v26L137.3,56.5z"/>
</g>
</svg>
